<svg xmlns="http://www.w3.org/2000/svg" xmlns:xlink="http://www.w3.org/1999/xlink" viewBox="0,0,256,256" width="24px" height="24px"><g transform="translate(38.4,38.4) scale(0.7,0.7)"><g fill="#808080" fill-rule="nonzero" stroke="none" stroke-width="1" stroke-linecap="butt" stroke-linejoin="miter" stroke-miterlimit="10" stroke-dasharray="" stroke-dashoffset="0" font-family="none" font-weight="none" font-size="none" text-anchor="none" style="mix-blend-mode: normal"><path d="M128,310.85714c-100.98921,0 -182.85714,-81.86793 -182.85714,-182.85714v0c0,-100.98921 81.86793,-182.85714 182.85714,-182.85714v0c100.98921,0 182.85714,81.86793 182.85714,182.85714v0c0,100.98921 -81.86793,182.85714 -182.85714,182.85714z" id="shape"></path></g><g fill="none" fill-rule="evenodd" stroke="none" stroke-width="none" stroke-linecap="butt" stroke-linejoin="none" stroke-miterlimit="10" stroke-dasharray="" stroke-dashoffset="0" font-family="none" font-weight="none" font-size="none" text-anchor="none" style="mix-blend-mode: normal"><path transform="scale(10.66667,10.66667)" d="M13,2v9h9v2h-9v9h-2v-9h-9v-2h9v-9z" id="strokeMainSVG" fill="#212529" stroke="#212529" stroke-width="2" stroke-linejoin="round"></path><g transform="scale(10.66667,10.66667)" fill-opacity="0" fill="#e5e5e5" stroke="none" stroke-width="1" stroke-linejoin="miter"><path d="M11,2v9h-9v2h9v9h2v-9h9v-2h-9v-9z"></path></g></g></g></svg>